ffmpeg started on 2025-06-06 at 17:49:38
Report written to "D:\Convert\FFMetrics\reports\psnr_report-6.txt"
Log level: 32
Command line:
ffmpeg -hide_banner -nostdin -i "G:\\\xc0\xed\xe8\xec\xe5\\\xce\xed\xe3\xee\xe8\xed\xe3\xe8\\!_36_\xce\xf1\xe5\xed\xfc_2024\\DreamCast\\\xcf\xee\xe2\xe5\xeb\xe8\xf2\xe5\xeb\xfc \xe4\xe5\xec\xee\xed\xee\xe2 2099\\[DC] Maou 2099 - 06_Telegram_HEVC.mkv" -i "G:\\\xc0\xed\xe8\xec\xe5\\\xce\xed\xe3\xee\xe8\xed\xe3\xe8\\!_36_\xce\xf1\xe5\xed\xfc_2024\\DreamCast\\\xcf\xee\xe2\xe5\xeb\xe8\xf2\xe5\xeb\xfc \xe4\xe5\xec\xee\xed\xee\xe2 2099\\[DC] Maou 2099 - 06_Telegram.mp4" -lavfi "[0:v]settb=AVTB,setpts=PTS-STARTPTS,format=pix_fmts=yuv420p10,fps=24000/1001,scale=1920:1080:flags=bicubic[main];[1:v]settb=AVTB,setpts=PTS-STARTPTS,format=pix_fmts=yuv420p,fps=24000/1001,scale=1920:1080:flags=bicubic[ref];[main][ref]psnr=eof_action=endall:stats_file='D\\:/Convert/FFMetrics/logs/psnr_logfile-6.txt'" -f null -
Input #0, matroska,webm, from 'G:\Аниме\Онгоинги\!_36_Осень_2024\DreamCast\Повелитель демонов 2099\[DC] Maou 2099 - 06_Telegram_HEVC.mkv':
  Metadata:
    COMPATIBLE_BRANDS: isomiso2avc1mp41
    MAJOR_BRAND     : isom
    MINOR_VERSION   : 512
    ENCODER         : Lavf61.7.100
  Duration: 00:23:46.69, start: -0.021000, bitrate: 2240 kb/s
  Stream #0:0: Video: hevc (Main 10), yuv420p10le(tv, bt709, progressive), 1920x1080 [SAR 1:1 DAR 16:9], 23.98 fps, 23.98 tbr, 1k tbn (default)
      Metadata:
        HANDLER_NAME    : VideoHandler
        VENDOR_ID       : [0][0][0][0]
        ENCODER         : Lavc61.19.100 libx265
        BPS             : 2043633
        DURATION        : 00:23:46.591708333
        NUMBER_OF_FRAMES: 34204
        NUMBER_OF_BYTES : 364428588
        _STATISTICS_WRITING_APP: mkvpropedit v66.0.0 ('Josie') 64-bit
        _STATISTICS_WRITING_DATE_UTC: 2025-06-02 15:22:11
        _STATISTICS_TAGS: BPS DURATION NUMBER_OF_FRAMES NUMBER_OF_BYTES
  Stream #0:1: Audio: aac (LC), 48000 Hz, stereo, fltp (default)
      Metadata:
        HANDLER_NAME    : SoundHandler
        VENDOR_ID       : [0][0][0][0]
        ENCODER         : Lavc61.19.100 aac
        BPS             : 193269
        DURATION        : 00:23:46.688000000
        NUMBER_OF_FRAMES: 66877
        NUMBER_OF_BYTES : 34466835
        _STATISTICS_WRITING_APP: mkvpropedit v66.0.0 ('Josie') 64-bit
        _STATISTICS_WRITING_DATE_UTC: 2025-06-02 15:22:11
        _STATISTICS_TAGS: BPS DURATION NUMBER_OF_FRAMES NUMBER_OF_BYTES
Input #1, mov,mp4,m4a,3gp,3g2,mj2, from 'G:\Аниме\Онгоинги\!_36_Осень_2024\DreamCast\Повелитель демонов 2099\[DC] Maou 2099 - 06_Telegram.mp4':
  Metadata:
    major_brand     : isom
    minor_version   : 512
    compatible_brands: isomiso2avc1mp41
    encoder         : Lavf61.1.100
  Duration: 00:23:46.66, start: 0.000000, bitrate: 3563 kb/s
  Stream #1:0[0x1](und): Video: h264 (High) (avc1 / 0x31637661), yuv420p(tv, bt709, progressive), 1920x1080 [SAR 1:1 DAR 16:9], 3415 kb/s, 23.98 fps, 23.98 tbr, 24k tbn (default)
      Metadata:
        handler_name    : VideoHandler
        vendor_id       : [0][0][0][0]
        encoder         : Lavc61.3.100 h264_qsv
  Stream #1:1[0x2](und): Audio: aac (HE-AACv2) (mp4a / 0x6134706D), 48000 Hz, stereo, fltp, 144 kb/s (default)
      Metadata:
        handler_name    : SoundHandler
        vendor_id       : [0][0][0][0]
Stream mapping:
  Stream #0:0 (hevc) -> settb:default
  Stream #1:0 (h264) -> settb:default
  psnr:default -> Stream #0:0 (wrapped_avframe)
  Stream #0:1 -> #0:1 (aac (native) -> pcm_s16le (native))
Output #0, null, to 'pipe:':
  Metadata:
    COMPATIBLE_BRANDS: isomiso2avc1mp41
    MAJOR_BRAND     : isom
    MINOR_VERSION   : 512
    encoder         : Lavf61.7.100
  Stream #0:0: Video: wrapped_avframe, yuv420p10le(tv, bt709, progressive), 1920x1080 [SAR 1:1 DAR 16:9], q=2-31, 200 kb/s, 23.98 fps, 23.98 tbn
      Metadata:
        encoder         : Lavc61.19.100 wrapped_avframe
  Stream #0:1: Audio: pcm_s16le, 48000 Hz, stereo, s16, 1536 kb/s (default)
      Metadata:
        HANDLER_NAME    : SoundHandler
        VENDOR_ID       : [0][0][0][0]
        _STATISTICS_TAGS: BPS DURATION NUMBER_OF_FRAMES NUMBER_OF_BYTES
        BPS             : 193269
        DURATION        : 00:23:46.688000000
        NUMBER_OF_FRAMES: 66877
        NUMBER_OF_BYTES : 34466835
        _STATISTICS_WRITING_APP: mkvpropedit v66.0.0 ('Josie') 64-bit
        _STATISTICS_WRITING_DATE_UTC: 2025-06-02 15:22:11
        encoder         : Lavc61.19.100 pcm_s16le
frame=  170 fps=0.0 q=-0.0 size=N/A time=00:00:07.09 bitrate=N/A speed=13.7x    frame=  375 fps=367 q=-0.0 size=N/A time=00:00:15.64 bitrate=N/A speed=15.3x    frame=  625 fps=405 q=-0.0 size=N/A time=00:00:26.06 bitrate=N/A speed=16.9x    frame=  896 fps=434 q=-0.0 size=N/A time=00:00:37.37 bitrate=N/A speed=18.1x    frame= 1157 fps=450 q=-0.0 size=N/A time=00:00:48.25 bitrate=N/A speed=18.8x    frame= 1433 fps=463 q=-0.0 size=N/A time=00:00:59.76 bitrate=N/A speed=19.3x    frame= 1617 fps=449 q=-0.0 size=N/A time=00:01:07.44 bitrate=N/A speed=18.7x    frame= 1833 fps=444 q=-0.0 size=N/A time=00:01:16.45 bitrate=N/A speed=18.5x    frame= 2112 fps=455 q=-0.0 size=N/A time=00:01:28.08 bitrate=N/A speed=  19x    frame= 2364 fps=459 q=-0.0 size=N/A time=00:01:38.59 bitrate=N/A speed=19.1x    frame= 2566 fps=452 q=-0.0 size=N/A time=00:01:47.02 bitrate=N/A speed=18.9x    frame= 2752 fps=445 q=-0.0 size=N/A time=00:01:54.78 bitrate=N/A speed=18.6x    frame= 2985 fps=445 q=-0.0 size=N/A time=00:02:04.49 bitrate=N/A speed=18.6x    frame= 3195 fps=443 q=-0.0 size=N/A time=00:02:13.25 bitrate=N/A speed=18.5x    frame= 3459 fps=447 q=-0.0 size=N/A time=00:02:24.26 bitrate=N/A speed=18.7x    frame= 3681 fps=446 q=-0.0 size=N/A time=00:02:33.52 bitrate=N/A speed=18.6x    frame= 3944 fps=450 q=-0.0 size=N/A time=00:02:44.49 bitrate=N/A speed=18.8x    frame= 4156 fps=448 q=-0.0 size=N/A time=00:02:53.33 bitrate=N/A speed=18.7x    frame= 4405 fps=450 q=-0.0 size=N/A time=00:03:03.72 bitrate=N/A speed=18.8x    frame= 4674 fps=453 q=-0.0 size=N/A time=00:03:14.94 bitrate=N/A speed=18.9x    frame= 4879 fps=451 q=-0.0 size=N/A time=00:03:23.49 bitrate=N/A speed=18.8x    frame= 5131 fps=452 q=-0.0 size=N/A time=00:03:34.00 bitrate=N/A speed=18.9x    frame= 5407 fps=456 q=-0.0 size=N/A time=00:03:45.51 bitrate=N/A speed=  19x    frame= 5690 fps=460 q=-0.0 size=N/A time=00:03:57.32 bitrate=N/A speed=19.2x    frame= 5884 fps=457 q=-0.0 size=N/A time=00:04:05.41 bitrate=N/A speed=  19x    frame= 6031 fps=450 q=-0.0 size=N/A time=00:04:11.54 bitrate=N/A speed=18.8x    frame= 6167 fps=443 q=-0.0 size=N/A time=00:04:17.21 bitrate=N/A speed=18.5x    frame= 6352 fps=440 q=-0.0 size=N/A time=00:04:24.93 bitrate=N/A speed=18.3x    frame= 6524 fps=436 q=-0.0 size=N/A time=00:04:32.10 bitrate=N/A speed=18.2x    frame= 6718 fps=434 q=-0.0 size=N/A time=00:04:40.19 bitrate=N/A speed=18.1x    frame= 6905 fps=432 q=-0.0 size=N/A time=00:04:47.99 bitrate=N/A speed=  18x    frame= 7137 fps=433 q=-0.0 size=N/A time=00:04:57.67 bitrate=N/A speed=  18x    frame= 7283 fps=428 q=-0.0 size=N/A time=00:05:03.76 bitrate=N/A speed=17.8x    frame= 7470 fps=426 q=-0.0 size=N/A time=00:05:11.56 bitrate=N/A speed=17.8x    frame= 7654 fps=424 q=-0.0 size=N/A time=00:05:19.23 bitrate=N/A speed=17.7x    frame= 7836 fps=422 q=-0.0 size=N/A time=00:05:26.82 bitrate=N/A speed=17.6x    frame= 8006 fps=420 q=-0.0 size=N/A time=00:05:33.91 bitrate=N/A speed=17.5x    frame= 8238 fps=420 q=-0.0 size=N/A time=00:05:43.59 bitrate=N/A speed=17.5x    frame= 8515 fps=424 q=-0.0 size=N/A time=00:05:55.14 bitrate=N/A speed=17.7x    frame= 8768 fps=425 q=-0.0 size=N/A time=00:06:05.69 bitrate=N/A speed=17.7x    frame= 8980 fps=425 q=-0.0 size=N/A time=00:06:14.54 bitrate=N/A speed=17.7x    frame= 9245 fps=427 q=-0.0 size=N/A time=00:06:25.59 bitrate=N/A speed=17.8x    frame= 9511 fps=429 q=-0.0 size=N/A time=00:06:36.68 bitrate=N/A speed=17.9x    frame= 9703 fps=428 q=-0.0 size=N/A time=00:06:44.69 bitrate=N/A speed=17.8x    frame= 9994 fps=431 q=-0.0 size=N/A time=00:06:56.83 bitrate=N/A speed=  18x    frame=10240 fps=432 q=-0.0 size=N/A time=00:07:07.09 bitrate=N/A speed=  18x    frame=10441 fps=431 q=-0.0 size=N/A time=00:07:15.47 bitrate=N/A speed=  18x    frame=10614 fps=429 q=-0.0 size=N/A time=00:07:22.69 bitrate=N/A speed=17.9x    frame=10792 fps=427 q=-0.0 size=N/A time=00:07:30.11 bitrate=N/A speed=17.8x    frame=11002 fps=427 q=-0.0 size=N/A time=00:07:38.87 bitrate=N/A speed=17.8x    frame=11237 fps=427 q=-0.0 size=N/A time=00:07:48.67 bitrate=N/A speed=17.8x    frame=11487 fps=428 q=-0.0 size=N/A time=00:07:59.10 bitrate=N/A speed=17.9x    frame=11752 fps=430 q=-0.0 size=N/A time=00:08:10.15 bitrate=N/A speed=17.9x    frame=12010 fps=431 q=-0.0 size=N/A time=00:08:20.91 bitrate=N/A speed=  18x    frame=12263 fps=433 q=-0.0 size=N/A time=00:08:31.46 bitrate=N/A speed=  18x    frame=12490 fps=433 q=-0.0 size=N/A time=00:08:40.93 bitrate=N/A speed=  18x    frame=12705 fps=432 q=-0.0 size=N/A time=00:08:49.90 bitrate=N/A speed=  18x    frame=12948 fps=433 q=-0.0 size=N/A time=00:09:00.03 bitrate=N/A speed=18.1x    frame=13162 fps=433 q=-0.0 size=N/A time=00:09:08.96 bitrate=N/A speed=  18x    frame=13385 fps=433 q=-0.0 size=N/A time=00:09:18.26 bitrate=N/A speed=  18x    frame=13622 fps=433 q=-0.0 size=N/A time=00:09:28.15 bitrate=N/A speed=18.1x    frame=13871 fps=434 q=-0.0 size=N/A time=00:09:38.53 bitrate=N/A speed=18.1x    frame=14116 fps=434 q=-0.0 size=N/A time=00:09:48.75 bitrate=N/A speed=18.1x    frame=14396 fps=436 q=-0.0 size=N/A time=00:10:00.43 bitrate=N/A speed=18.2x    frame=14615 fps=436 q=-0.0 size=N/A time=00:10:09.56 bitrate=N/A speed=18.2x    frame=14773 fps=434 q=-0.0 size=N/A time=00:10:16.15 bitrate=N/A speed=18.1x    frame=14932 fps=432 q=-0.0 size=N/A time=00:10:22.78 bitrate=N/A speed=  18x    frame=15073 fps=430 q=-0.0 size=N/A time=00:10:28.66 bitrate=N/A speed=17.9x    frame=15191 fps=427 q=-0.0 size=N/A time=00:10:33.59 bitrate=N/A speed=17.8x    frame=15355 fps=425 q=-0.0 size=N/A time=00:10:40.43 bitrate=N/A speed=17.7x    frame=15486 fps=423 q=-0.0 size=N/A time=00:10:45.89 bitrate=N/A speed=17.6x    frame=15623 fps=421 q=-0.0 size=N/A time=00:10:51.60 bitrate=N/A speed=17.6x    frame=15819 fps=420 q=-0.0 size=N/A time=00:10:59.78 bitrate=N/A speed=17.5x    frame=15999 fps=419 q=-0.0 size=N/A time=00:11:07.29 bitrate=N/A speed=17.5x    frame=16168 fps=418 q=-0.0 size=N/A time=00:11:14.34 bitrate=N/A speed=17.4x    frame=16365 fps=418 q=-0.0 size=N/A time=00:11:22.55 bitrate=N/A speed=17.4x    frame=16550 fps=417 q=-0.0 size=N/A time=00:11:30.27 bitrate=N/A speed=17.4x    frame=16780 fps=417 q=-0.0 size=N/A time=00:11:39.86 bitrate=N/A speed=17.4x    frame=17046 fps=418 q=-0.0 size=N/A time=00:11:50.96 bitrate=N/A speed=17.4x    frame=17321 fps=420 q=-0.0 size=N/A time=00:12:02.43 bitrate=N/A speed=17.5x    frame=17554 fps=420 q=-0.0 size=N/A time=00:12:12.14 bitrate=N/A speed=17.5x    frame=17812 fps=421 q=-0.0 size=N/A time=00:12:22.90 bitrate=N/A speed=17.6x    frame=18023 fps=421 q=-0.0 size=N/A time=00:12:31.70 bitrate=N/A speed=17.6x    frame=18204 fps=420 q=-0.0 size=N/A time=00:12:39.25 bitrate=N/A speed=17.5x    frame=18384 fps=419 q=-0.0 size=N/A time=00:12:46.76 bitrate=N/A speed=17.5x    frame=18571 fps=419 q=-0.0 size=N/A time=00:12:54.56 bitrate=N/A speed=17.5x    frame=18756 fps=418 q=-0.0 size=N/A time=00:13:02.28 bitrate=N/A speed=17.4x    frame=18929 fps=417 q=-0.0 size=N/A time=00:13:09.49 bitrate=N/A speed=17.4x    frame=19111 fps=416 q=-0.0 size=N/A time=00:13:17.08 bitrate=N/A speed=17.4x    frame=19295 fps=416 q=-0.0 size=N/A time=00:13:24.76 bitrate=N/A speed=17.3x    frame=19492 fps=415 q=-0.0 size=N/A time=00:13:32.97 bitrate=N/A speed=17.3x    frame=19697 fps=415 q=-0.0 size=N/A time=00:13:41.52 bitrate=N/A speed=17.3x    frame=19896 fps=415 q=-0.0 size=N/A time=00:13:49.82 bitrate=N/A speed=17.3x    frame=20108 fps=415 q=-0.0 size=N/A time=00:13:58.67 bitrate=N/A speed=17.3x    frame=20335 fps=415 q=-0.0 size=N/A time=00:14:08.13 bitrate=N/A speed=17.3x    frame=20592 fps=416 q=-0.0 size=N/A time=00:14:18.85 bitrate=N/A speed=17.3x    frame=20860 fps=417 q=-0.0 size=N/A time=00:14:30.03 bitrate=N/A speed=17.4x    frame=21035 fps=416 q=-0.0 size=N/A time=00:14:37.33 bitrate=N/A speed=17.4x    frame=21216 fps=415 q=-0.0 size=N/A time=00:14:44.88 bitrate=N/A speed=17.3x    frame=21403 fps=415 q=-0.0 size=N/A time=00:14:52.68 bitrate=N/A speed=17.3x    frame=21622 fps=415 q=-0.0 size=N/A time=00:15:01.81 bitrate=N/A speed=17.3x    frame=21815 fps=415 q=-0.0 size=N/A time=00:15:09.86 bitrate=N/A speed=17.3x    frame=22010 fps=414 q=-0.0 size=N/A time=00:15:18.00 bitrate=N/A speed=17.3x    frame=22226 fps=414 q=-0.0 size=N/A time=00:15:27.00 bitrate=N/A speed=17.3x    frame=22437 fps=414 q=-0.0 size=N/A time=00:15:35.80 bitrate=N/A speed=17.3x    frame=22598 fps=413 q=-0.0 size=N/A time=00:15:42.52 bitrate=N/A speed=17.2x    frame=22797 fps=413 q=-0.0 size=N/A time=00:15:50.82 bitrate=N/A speed=17.2x    frame=23029 fps=413 q=-0.0 size=N/A time=00:16:00.50 bitrate=N/A speed=17.2x    frame=23245 fps=413 q=-0.0 size=N/A time=00:16:09.51 bitrate=N/A speed=17.2x    frame=23432 fps=413 q=-0.0 size=N/A time=00:16:17.30 bitrate=N/A speed=17.2x    frame=23605 fps=412 q=-0.0 size=N/A time=00:16:24.52 bitrate=N/A speed=17.2x    frame=23794 fps=412 q=-0.0 size=N/A time=00:16:32.40 bitrate=N/A speed=17.2x    frame=24039 fps=413 q=-0.0 size=N/A time=00:16:42.62 bitrate=N/A speed=17.2x    frame=24271 fps=413 q=-0.0 size=N/A time=00:16:52.30 bitrate=N/A speed=17.2x    frame=24498 fps=413 q=-0.0 size=N/A time=00:17:01.77 bitrate=N/A speed=17.2x    frame=24746 fps=414 q=-0.0 size=N/A time=00:17:12.11 bitrate=N/A speed=17.2x    frame=25013 fps=414 q=-0.0 size=N/A time=00:17:23.25 bitrate=N/A speed=17.3x    frame=25279 fps=415 q=-0.0 size=N/A time=00:17:34.34 bitrate=N/A speed=17.3x    frame=25569 fps=417 q=-0.0 size=N/A time=00:17:46.44 bitrate=N/A speed=17.4x    frame=25846 fps=417 q=-0.0 size=N/A time=00:17:57.99 bitrate=N/A speed=17.4x    frame=26137 fps=419 q=-0.0 size=N/A time=00:18:10.13 bitrate=N/A speed=17.5x    frame=26406 fps=420 q=-0.0 size=N/A time=00:18:21.35 bitrate=N/A speed=17.5x    frame=26680 fps=420 q=-0.0 size=N/A time=00:18:32.77 bitrate=N/A speed=17.5x    frame=26947 fps=421 q=-0.0 size=N/A time=00:18:43.91 bitrate=N/A speed=17.6x    frame=27226 fps=422 q=-0.0 size=N/A time=00:18:55.55 bitrate=N/A speed=17.6x    frame=27501 fps=423 q=-0.0 size=N/A time=00:19:07.02 bitrate=N/A speed=17.6x    frame=27779 fps=424 q=-0.0 size=N/A time=00:19:18.65 bitrate=N/A speed=17.7x    frame=28078 fps=425 q=-0.0 size=N/A time=00:19:31.08 bitrate=N/A speed=17.7x    frame=28316 fps=426 q=-0.0 size=N/A time=00:19:41.01 bitrate=N/A speed=17.7x    frame=28527 fps=425 q=-0.0 size=N/A time=00:19:49.81 bitrate=N/A speed=17.7x    frame=28730 fps=425 q=-0.0 size=N/A time=00:19:58.28 bitrate=N/A speed=17.7x    frame=28993 fps=426 q=-0.0 size=N/A time=00:20:09.24 bitrate=N/A speed=17.8x    frame=29255 fps=426 q=-0.0 size=N/A time=00:20:20.17 bitrate=N/A speed=17.8x    frame=29525 fps=427 q=-0.0 size=N/A time=00:20:31.43 bitrate=N/A speed=17.8x    frame=29758 fps=427 q=-0.0 size=N/A time=00:20:41.15 bitrate=N/A speed=17.8x    frame=29967 fps=427 q=-0.0 size=N/A time=00:20:49.87 bitrate=N/A speed=17.8x    frame=30155 fps=427 q=-0.0 size=N/A time=00:20:57.71 bitrate=N/A speed=17.8x    frame=30324 fps=426 q=-0.0 size=N/A time=00:21:04.76 bitrate=N/A speed=17.8x    frame=30444 fps=425 q=-0.0 size=N/A time=00:21:09.76 bitrate=N/A speed=17.7x    frame=30544 fps=423 q=-0.0 size=N/A time=00:21:13.93 bitrate=N/A speed=17.6x    frame=30644 fps=421 q=-0.0 size=N/A time=00:21:18.11 bitrate=N/A speed=17.6x    frame=30745 fps=420 q=-0.0 size=N/A time=00:21:22.32 bitrate=N/A speed=17.5x    frame=30852 fps=418 q=-0.0 size=N/A time=00:21:26.78 bitrate=N/A speed=17.4x    frame=30945 fps=417 q=-0.0 size=N/A time=00:21:30.66 bitrate=N/A speed=17.4x    frame=31210 fps=417 q=-0.0 size=N/A time=00:21:41.71 bitrate=N/A speed=17.4x    frame=31465 fps=418 q=-0.0 size=N/A time=00:21:52.35 bitrate=N/A speed=17.4x    frame=31737 fps=419 q=-0.0 size=N/A time=00:22:03.69 bitrate=N/A speed=17.5x    frame=32031 fps=420 q=-0.0 size=N/A time=00:22:15.95 bitrate=N/A speed=17.5x    frame=32274 fps=420 q=-0.0 size=N/A time=00:22:26.09 bitrate=N/A speed=17.5x    frame=32470 fps=420 q=-0.0 size=N/A time=00:22:34.26 bitrate=N/A speed=17.5x    frame=32739 fps=420 q=-0.0 size=N/A time=00:22:45.48 bitrate=N/A speed=17.5x    frame=33011 fps=421 q=-0.0 size=N/A time=00:22:56.83 bitrate=N/A speed=17.6x    frame=33219 fps=421 q=-0.0 size=N/A time=00:23:05.50 bitrate=N/A speed=17.6x    frame=33409 fps=421 q=-0.0 size=N/A time=00:23:13.43 bitrate=N/A speed=17.5x    frame=33653 fps=421 q=-0.0 size=N/A time=00:23:23.61 bitrate=N/A speed=17.6x    frame=33891 fps=421 q=-0.0 size=N/A time=00:23:33.53 bitrate=N/A speed=17.6x    frame=34143 fps=422 q=-0.0 size=N/A time=00:23:44.04 bitrate=N/A speed=17.6x    [Parsed_psnr_10 @ 000001a9f720f900] PSNR y:46.627411 u:49.257992 v:48.449889 average:47.246413 min:29.461795 max:inf
[out#0/null @ 000001a9ea124500] video:14697KiB audio:267508KiB subtitle:0KiB other streams:0KiB global headers:0KiB muxing overhead: unknown
frame=34204 fps=422 q=-0.0 Lsize=N/A time=00:23:46.59 bitrate=N/A speed=17.6x    
